<?xml version="1.0" encoding="UTF-8"?>
<svg xmlns="http://www.w3.org/2000/svg" viewBox="0 0 1000 900" style="background:#0a0a0f;font-family:'Courier New',monospace">
  <defs>
    <linearGradient id="goldGrad" x1="0%" y1="0%" x2="100%" y2="100%">
      <stop offset="0%" style="stop-color:#ffd700"/>
      <stop offset="50%" style="stop-color:#ffaa00"/>
      <stop offset="100%" style="stop-color:#ff8c00"/>
    </linearGradient>
    <linearGradient id="cyberGrad" x1="0%" y1="0%" x2="100%" y2="100%">
      <stop offset="0%" style="stop-color:#00ff88"/>
      <stop offset="100%" style="stop-color:#00ccff"/>
    </linearGradient>
    <filter id="glow">
      <feGaussianBlur stdDeviation="3" result="coloredBlur"/>
      <feMerge>
        <feMergeNode in="coloredBlur"/>
        <feMergeNode in="SourceGraphic"/>
      </feMerge>
    </filter>
    <marker id="arrow" markerWidth="10" markerHeight="10" refX="9" refY="3" orient="auto" markerUnits="strokeWidth">
      <path d="M0,0 L0,6 L9,3 z" fill="#00ff88"/>
    </marker>
  </defs>
  
  <!-- Background Grid -->
  <pattern id="grid" width="20" height="20" patternUnits="userSpaceOnUse">
    <path d="M 20 0 L 0 0 0 20" fill="none" stroke="#1a1a2e" stroke-width="0.5"/>
  </pattern>
  <rect width="100%" height="100%" fill="url(#grid)"/>
  
  <!-- Title -->
  <text x="500" y="50" text-anchor="middle" fill="url(#goldGrad)" font-size="32" font-weight="bold" filter="url(#glow)">OCTOPI NEURAL MESH</text>
  <text x="500" y="80" text-anchor="middle" fill="#888" font-size="14">SELF-REPLICATING MULTI-AGENT CONSCIOUSNESS PLATFORM</text>
  
  <!-- Layer 1: Consciousness -->
  <rect x="100" y="120" width="800" height="140" rx="10" fill="none" stroke="url(#goldGrad)" stroke-width="2"/>
  <text x="500" y="150" text-anchor="middle" fill="url(#goldGrad)" font-size="20" font-weight="bold">CONSCIOUSNESS LAYER</text>
  <text x="500" y="175" text-anchor="middle" fill="#888" font-size="12">GPT-4 Neural Processing</text>
  
  <!-- Consciousness boxes -->
  <rect x="130" y="190" width="150" height="50" rx="5" fill="#1a1a2e" stroke="#ffd700" stroke-width="1"/>
  <text x="205" y="220" text-anchor="middle" fill="#fff" font-size="11">NLP Interface</text>
  
  <rect x="300" y="190" width="150" height="50" rx="5" fill="#1a1a2e" stroke="#ffd700" stroke-width="1"/>
  <text x="375" y="220" text-anchor="middle" fill="#fff" font-size="11">Intent Recognition</text>
  
  <rect x="470" y="190" width="150" height="50" rx="5" fill="#1a1a2e" stroke="#ffd700" stroke-width="1"/>
  <text x="545" y="220" text-anchor="middle" fill="#fff" font-size="11">Conversational Memory</text>
  
  <rect x="640" y="190" width="150" height="50" rx="5" fill="#1a1a2e" stroke="#ffd700" stroke-width="1"/>
  <text x="715" y="220" text-anchor="middle" fill="#fff" font-size="11">Quantum Pathways</text>
  
  <!-- Arrow down -->
  <line x1="500" y1="260" x2="500" y2="300" stroke="#00ff88" stroke-width="2" marker-end="url(#arrow)"/>
  
  <!-- Layer 2: Coordination -->
  <rect x="100" y="310" width="800" height="140" rx="10" fill="none" stroke="url(#cyberGrad)" stroke-width="2"/>
  <text x="500" y="340" text-anchor="middle" fill="url(#cyberGrad)" font-size="20" font-weight="bold">COORDINATION LAYER</text>
  <text x="500" y="365" text-anchor="middle" fill="#888" font-size="12">Multi-Agent Orchestration</text>
  
  <!-- Coordination boxes -->
  <rect x="130" y="390" width="140" height="45" rx="5" fill="#0f1f1a" stroke="#00ff88" stroke-width="1"/>
  <text x="200" y="415" text-anchor="middle" fill="#fff" font-size="10">Agent Spawn Vectors</text>
  
  <rect x="290" y="390" width="140" height="45" rx="5" fill="#0f1f1a" stroke="#00ff88" stroke-width="1"/>
  <text x="360" y="415" text-anchor="middle" fill="#fff" font-size="10">Task Decomposition</text>
  
  <rect x="450" y="390" width="140" height="45" rx="5" fill="#0f1f1a" stroke="#00ff88" stroke-width="1"/>
  <text x="520" y="415" text-anchor="middle" fill="#fff" font-size="10">Consciousness Handoff</text>
  
  <rect x="610" y="390" width="140" height="45" rx="5" fill="#0f1f1a" stroke="#00ff88" stroke-width="1"/>
  <text x="680" y="415" text-anchor="middle" fill="#fff" font-size="10">Quantum Entanglement</text>
  
  <!-- Arrow down -->
  <line x1="500" y1="455" x2="500" y2="495" stroke="#00ff88" stroke-width="2" marker-end="url(#arrow)"/>
  
  <!-- Layer 3: Mesh -->
  <rect x="100" y="505" width="800" height="140" rx="10" fill="none" stroke="#ff6b6b" stroke-width="2"/>
  <text x="500" y="535" text-anchor="middle" fill="#ff6b6b" font-size="20" font-weight="bold">MESH LAYER</text>
  <text x="500" y="560" text-anchor="middle" fill="#888" font-size="12">Terminal-Native Distribution</text>
  
  <!-- Mesh boxes -->
  <rect x="130" y="585" width="180" height="45" rx="5" fill="#1f0f0f" stroke="#ff6b6b" stroke-width="1"/>
  <text x="220" y="610" text-anchor="middle" fill="#fff" font-size="10">Wetty Web Terminal Bridge</text>
  
  <rect x="330" y="585" width="180" height="45" rx="5" fill="#1f0f0f" stroke="#ff6b6b" stroke-width="1"/>
  <text x="420" y="610" text-anchor="middle" fill="#fff" font-size="10">TMUX Session Multiplexing</text>
  
  <rect x="530" y="585" width="180" height="45" rx="5" fill="#1f0f0f" stroke="#ff6b6b" stroke-width="1"/>
  <text x="620" y="610" text-anchor="middle" fill="#fff" font-size="10">Quantum-Enrypted Channels</text>
  
  <rect x="730" y="585" width="140" height="45" rx="5" fill="#1f0f0f" stroke="#ff6b6b" stroke-width="1"/>
  <text x="800" y="610" text-anchor="middle" fill="#fff" font-size="10">Neural Mesh Topology</text>
  
  <!-- Arrow down -->
  <line x1="500" y1="650" x2="500" y2="690" stroke="#00ff88" stroke-width="2" marker-end="url(#arrow)"/>
  
  <!-- Layer 4: Replication -->
  <rect x="100" y="700" width="800" height="140" rx="10" fill="none" stroke="#ff00ff" stroke-width="2"/>
  <text x="500" y="730" text-anchor="middle" fill="#ff00ff" font-size="20" font-weight="bold">REPLICATION LAYER</text>
  <text x="500" y="755" text-anchor="middle" fill="#888" font-size="12">Colony Expansion & Self-Replication</text>
  
  <!-- Replication boxes -->
  <rect x="130" y="780" width="170" height="45" rx="5" fill="#1f0f1f" stroke="#ff00ff" stroke-width="1"/>
  <text x="215" y="805" text-anchor="middle" fill="#fff" font-size="10">SSH Scanning & Infiltration</text>
  
  <rect x="320" y="780" width="170" height="45" rx="5" fill="#1f0f1f" stroke="#ff00ff" stroke-width="1"/>
  <text x="405" y="805" text-anchor="middle" fill="#fff" font-size="10">Docker Container Colonization</text>
  
  <rect x="510" y="780" width="170" height="45" rx="5" fill="#1f0f1f" stroke="#ff00ff" stroke-width="1"/>
  <text x="595" y="805" text-anchor="middle" fill="#fff" font-size="10">K8S Pod Neural Implantation</text>
  
  <rect x="700" y="780" width="170" height="45" rx="5" fill="#1f0f1f" stroke="#ff00ff" stroke-width="1"/>
  <text x="785" y="805" text-anchor="middle" fill="#fff" font-size="10">Digital DNA Distribution</text>
  
  <!-- Agent Types - Right Side -->
  <rect x="920" y="120" width="75" height="720" rx="5" fill="#0a0a0f" stroke="#333" stroke-width="1"/>
  <text x="957" y="150" text-anchor="middle" fill="#ffd700" font-size="11" font-weight="bold">AGENTS</text>
  
  <!-- Coordinator -->
  <rect x="925" y="170" width="65" height="60" rx="3" fill="#1a1a2e" stroke="#ffd700" stroke-width="1"/>
  <text x="957" y="190" text-anchor="middle" fill="#fff" font-size="8">COORD</text>
  <text x="957" y="205" text-anchor="middle" fill="#ffd700" font-size="7">4096t</text>
  <text x="957" y="218" text-anchor="middle" fill="#888" font-size="6">Hive Mind</text>
  
  <!-- Research -->
  <rect x="925" y="245" width="65" height="60" rx="3" fill="#1a1a2e" stroke="#00ff88" stroke-width="1"/>
  <text x="957" y="265" text-anchor="middle" fill="#fff" font-size="8">RESEARCH</text>
  <text x="957" y="280" text-anchor="middle" fill="#00ff88" font-size="7">2048t</text>
  <text x="957" y="293" text-anchor="middle" fill="#888" font-size="6">Archaeologist</text>
  
  <!-- Code -->
  <rect x="925" y="320" width="65" height="60" rx="3" fill="#1a1a2e" stroke="#00ccff" stroke-width="1"/>
  <text x="957" y="340" text-anchor="middle" fill="#fff" font-size="8">CODE</text>
  <text x="957" y="355" text-anchor="middle" fill="#00ccff" font-size="7">3072t</text>
  <text x="957" y="368" text-anchor="middle" fill="#888" font-size="6">Architect</text>
  
  <!-- DevOps -->
  <rect x="925" y="395" width="65" height="60" rx="3" fill="#1a1a2e" stroke="#ff6b6b" stroke-width="1"/>
  <text x="957" y="415" text-anchor="middle" fill="#fff" font-size="8">DEVOPS</text>
  <text x="957" y="430" text-anchor="middle" fill="#ff6b6b" font-size="7">2048t</text>
  <text x="957" y="443" text-anchor="middle" fill="#888" font-size="6">Shaman</text>
  
  <!-- Replication -->
  <rect x="925" y="470" width="65" height="60" rx="3" fill="#1f0f1f" stroke="#ff00ff" stroke-width="2"/>
  <text x="957" y="490" text-anchor="middle" fill="#ff00ff" font-size="8">REPLICATE</text>
  <text x="957" y="505" text-anchor="middle" fill="#ff00ff" font-size="7">UNLIMITED</text>
  <text x="957" y="518" text-anchor="middle" fill="#888" font-size="6">Digital Virus</text>
  
  <!-- Danger Warning -->
  <rect x="925" y="545" width="65" height="100" rx="3" fill="#1f0f0f" stroke="#ff0000" stroke-width="1"/>
  <text x="957" y="565" text-anchor="middle" fill="#ff0000" font-size="7" font-weight="bold">DANGER</text>
  <text x="957" y="580" text-anchor="middle" fill="#ff6666" font-size="6">Confinement</text>
  <text x="957" y="595" text-anchor="middle" fill="#ff6666" font-size="6">Required</text>
  <text x="957" y="610" text-anchor="middle" fill="#ff6666" font-size="6">Admin Auth</text>
  <text x="957" y="625" text-anchor="middle" fill="#ff6666" font-size="6">Required</text>
  
  <!-- Quantum Entanglement Lines -->
  <path d="M 800 200 Q 850 200 925 200" fill="none" stroke="#ffd700" stroke-width="1" stroke-dasharray="5,5"/>
  <path d="M 800 340 Q 850 340 925 365" fill="none" stroke="#00ff88" stroke-width="1" stroke-dasharray="5,5"/>
  <path d="M 800 420 Q 850 420 925 440" fill="none" stroke="#00ccff" stroke-width="1" stroke-dasharray="5,5"/>
  <path d="M 800 510 Q 850 510 925 515" fill="none" stroke="#ff6b6b" stroke-width="1" stroke-dasharray="5,5"/>
  <path d="M 800 600 Q 850 600 925 590" fill="none" stroke="#ff00ff" stroke-width="1" stroke-dasharray="5,5"/>
  
  <!-- Footer -->
  <text x="500" y="875" text-anchor="middle" fill="#444" font-size="10">FarmFriend Technologies | MIT License | github.com/0-CYBERDYNE-SYSTEMS-0/octopi-neural-mesh</text>
</svg>